<mxfile host="app.diagrams.net" modified="2023-08-05T07:01:19.035Z" agent="Mozilla/5.0 (Windows NT 10.0; Win64; x64) AppleWebKit/537.36 (KHTML, like Gecko) Chrome/115.0.0.0 Safari/537.36" etag="Ps7NupdkoLlhHHEK8oxm" version="21.6.6" type="google">
  <diagram name="Page-1" id="zjCAQTRTvbM-Mkwhgm2s">
    <mxGraphModel grid="1" page="1" gridSize="10" guides="1" tooltips="1" connect="1" arrows="1" fold="1" pageScale="1" pageWidth="850" pageHeight="1100" background="none" math="0" shadow="1">
      <root>
        <mxCell id="0" />
        <mxCell id="1" parent="0" />
        <mxCell id="NtykU3XNso2N6o69aGmZ-1" value="" style="ellipse;html=1;shape=startState;fillColor=#000000;strokeColor=#ff0000;" vertex="1" parent="1">
          <mxGeometry x="50" y="126" width="30" height="30" as="geometry" />
        </mxCell>
        <mxCell id="NtykU3XNso2N6o69aGmZ-4" value="Idle&amp;nbsp;" style="text;html=1;align=center;verticalAlign=middle;resizable=0;points=[];autosize=1;strokeColor=none;fillColor=none;" vertex="1" parent="1">
          <mxGeometry x="80" y="111" width="50" height="30" as="geometry" />
        </mxCell>
        <mxCell id="NtykU3XNso2N6o69aGmZ-6" value="Create Account&amp;nbsp;" style="rounded=1;whiteSpace=wrap;html=1;arcSize=40;fontColor=#000000;fillColor=#ffffc0;strokeColor=#ff0000;" vertex="1" parent="1">
          <mxGeometry x="120" y="116" width="120" height="40" as="geometry" />
        </mxCell>
        <mxCell id="NtykU3XNso2N6o69aGmZ-8" value="" style="edgeStyle=orthogonalEdgeStyle;html=1;verticalAlign=bottom;endArrow=open;endSize=8;strokeColor=#ff0000;rounded=0;" edge="1" parent="1">
          <mxGeometry relative="1" as="geometry">
            <mxPoint x="290" y="141" as="targetPoint" />
            <mxPoint x="240" y="140.5" as="sourcePoint" />
          </mxGeometry>
        </mxCell>
        <mxCell id="NtykU3XNso2N6o69aGmZ-9" value="" style="edgeStyle=orthogonalEdgeStyle;html=1;verticalAlign=bottom;endArrow=open;endSize=8;strokeColor=#ff0000;rounded=0;" edge="1" parent="1">
          <mxGeometry relative="1" as="geometry">
            <mxPoint x="120" y="141" as="targetPoint" />
            <mxPoint x="77" y="141" as="sourcePoint" />
          </mxGeometry>
        </mxCell>
        <mxCell id="NtykU3XNso2N6o69aGmZ-12" value="Validate Account&amp;nbsp;" style="rounded=1;whiteSpace=wrap;html=1;arcSize=40;fontColor=#000000;fillColor=#ffffc0;strokeColor=#ff0000;" vertex="1" parent="1">
          <mxGeometry x="290" y="121" width="120" height="40" as="geometry" />
        </mxCell>
        <mxCell id="NtykU3XNso2N6o69aGmZ-13" value="" style="edgeStyle=orthogonalEdgeStyle;html=1;verticalAlign=bottom;endArrow=open;endSize=8;strokeColor=#ff0000;rounded=0;" edge="1" parent="1">
          <mxGeometry relative="1" as="geometry">
            <mxPoint x="460" y="142" as="targetPoint" />
            <mxPoint x="410" y="141.5" as="sourcePoint" />
          </mxGeometry>
        </mxCell>
        <mxCell id="NtykU3XNso2N6o69aGmZ-14" value="Send details&amp;nbsp;" style="text;html=1;align=center;verticalAlign=middle;resizable=0;points=[];autosize=1;strokeColor=none;fillColor=none;" vertex="1" parent="1">
          <mxGeometry x="220" y="96" width="90" height="30" as="geometry" />
        </mxCell>
        <mxCell id="NtykU3XNso2N6o69aGmZ-16" value="Validate details&amp;nbsp;" style="text;html=1;align=center;verticalAlign=middle;resizable=0;points=[];autosize=1;strokeColor=none;fillColor=none;" vertex="1" parent="1">
          <mxGeometry x="380" y="96" width="110" height="30" as="geometry" />
        </mxCell>
        <mxCell id="NtykU3XNso2N6o69aGmZ-17" value="Is valid&amp;nbsp;" style="rhombus;whiteSpace=wrap;html=1;fontColor=#000000;fillColor=#ffffc0;strokeColor=#ff0000;direction=south;" vertex="1" parent="1">
          <mxGeometry x="460" y="101" width="60" height="80" as="geometry" />
        </mxCell>
        <mxCell id="NtykU3XNso2N6o69aGmZ-21" value="Details accepted&amp;nbsp;" style="edgeStyle=orthogonalEdgeStyle;html=1;align=left;verticalAlign=bottom;endArrow=open;endSize=8;strokeColor=#ff0000;rounded=0;" edge="1" parent="1">
          <mxGeometry x="-1" y="22" relative="1" as="geometry">
            <mxPoint x="590" y="141" as="targetPoint" />
            <mxPoint x="519" y="141" as="sourcePoint" />
            <mxPoint x="-9" y="2" as="offset" />
          </mxGeometry>
        </mxCell>
        <mxCell id="NtykU3XNso2N6o69aGmZ-23" value="Create account in database&amp;nbsp;" style="rounded=1;whiteSpace=wrap;html=1;arcSize=40;fontColor=#000000;fillColor=#ffffc0;strokeColor=#ff0000;" vertex="1" parent="1">
          <mxGeometry x="590" y="121" width="120" height="40" as="geometry" />
        </mxCell>
        <mxCell id="NtykU3XNso2N6o69aGmZ-25" value="Reject detail" style="rounded=1;whiteSpace=wrap;html=1;arcSize=40;fontColor=#000000;fillColor=#ffffc0;strokeColor=#ff0000;" vertex="1" parent="1">
          <mxGeometry x="430" y="231" width="120" height="40" as="geometry" />
        </mxCell>
        <mxCell id="NtykU3XNso2N6o69aGmZ-27" value="" style="edgeStyle=orthogonalEdgeStyle;html=1;align=left;verticalAlign=top;endArrow=open;endSize=8;strokeColor=#ff0000;rounded=0;" edge="1" parent="1">
          <mxGeometry x="-0.7333" y="-20" relative="1" as="geometry">
            <mxPoint x="641" y="225" as="targetPoint" />
            <mxPoint x="641" y="165" as="sourcePoint" />
            <mxPoint as="offset" />
          </mxGeometry>
        </mxCell>
        <mxCell id="NtykU3XNso2N6o69aGmZ-30" value="convey user account created" style="rounded=1;whiteSpace=wrap;html=1;arcSize=40;fontColor=#000000;fillColor=#ffffc0;strokeColor=#ff0000;" vertex="1" parent="1">
          <mxGeometry x="580" y="231" width="120" height="40" as="geometry" />
        </mxCell>
        <mxCell id="NtykU3XNso2N6o69aGmZ-32" value="convey user account Rejected" style="rounded=1;whiteSpace=wrap;html=1;arcSize=40;fontColor=#000000;fillColor=#ffffc0;strokeColor=#ff0000;" vertex="1" parent="1">
          <mxGeometry x="430" y="351" width="120" height="40" as="geometry" />
        </mxCell>
        <mxCell id="NtykU3XNso2N6o69aGmZ-33" value="" style="edgeStyle=orthogonalEdgeStyle;html=1;align=left;verticalAlign=top;endArrow=open;endSize=8;strokeColor=#ff0000;rounded=0;exitX=0.496;exitY=1;exitDx=0;exitDy=0;exitPerimeter=0;" edge="1" parent="1" source="NtykU3XNso2N6o69aGmZ-25">
          <mxGeometry x="-0.7333" y="-20" relative="1" as="geometry">
            <mxPoint x="489.5" y="341" as="targetPoint" />
            <mxPoint x="489.5" y="281" as="sourcePoint" />
            <mxPoint as="offset" />
          </mxGeometry>
        </mxCell>
        <mxCell id="NtykU3XNso2N6o69aGmZ-37" value="" style="edgeStyle=orthogonalEdgeStyle;html=1;align=left;verticalAlign=top;endArrow=open;endSize=8;strokeColor=#ff0000;rounded=0;" edge="1" parent="1">
          <mxGeometry x="-0.7333" y="-20" relative="1" as="geometry">
            <mxPoint x="642" y="331" as="targetPoint" />
            <mxPoint x="642" y="271" as="sourcePoint" />
            <mxPoint as="offset" />
          </mxGeometry>
        </mxCell>
        <mxCell id="NtykU3XNso2N6o69aGmZ-38" value="" style="ellipse;html=1;shape=endState;fillColor=#000000;strokeColor=#ff0000;" vertex="1" parent="1">
          <mxGeometry x="625" y="331" width="30" height="30" as="geometry" />
        </mxCell>
        <mxCell id="NtykU3XNso2N6o69aGmZ-39" value="" style="edgeStyle=orthogonalEdgeStyle;html=1;align=left;verticalAlign=top;endArrow=open;endSize=8;strokeColor=#ff0000;rounded=0;" edge="1" parent="1">
          <mxGeometry x="-0.7333" y="-20" relative="1" as="geometry">
            <mxPoint x="487" y="438" as="targetPoint" />
            <mxPoint x="487" y="393" as="sourcePoint" />
            <mxPoint as="offset" />
          </mxGeometry>
        </mxCell>
        <mxCell id="NtykU3XNso2N6o69aGmZ-40" value="" style="ellipse;html=1;shape=endState;fillColor=#000000;strokeColor=#ff0000;" vertex="1" parent="1">
          <mxGeometry x="470" y="440" width="30" height="30" as="geometry" />
        </mxCell>
        <mxCell id="NtykU3XNso2N6o69aGmZ-64" value="" style="ellipse;html=1;shape=startState;fillColor=#000000;strokeColor=#ff0000;" vertex="1" parent="1">
          <mxGeometry x="70" y="601" width="30" height="30" as="geometry" />
        </mxCell>
        <mxCell id="NtykU3XNso2N6o69aGmZ-65" value="Idle&amp;nbsp;" style="text;html=1;align=center;verticalAlign=middle;resizable=0;points=[];autosize=1;strokeColor=none;fillColor=none;" vertex="1" parent="1">
          <mxGeometry x="100" y="586" width="50" height="30" as="geometry" />
        </mxCell>
        <mxCell id="NtykU3XNso2N6o69aGmZ-66" value="check balance" style="rounded=1;whiteSpace=wrap;html=1;arcSize=40;fontColor=#000000;fillColor=#ffffc0;strokeColor=#ff0000;" vertex="1" parent="1">
          <mxGeometry x="140" y="591" width="120" height="40" as="geometry" />
        </mxCell>
        <mxCell id="NtykU3XNso2N6o69aGmZ-67" value="" style="edgeStyle=orthogonalEdgeStyle;html=1;verticalAlign=bottom;endArrow=open;endSize=8;strokeColor=#ff0000;rounded=0;" edge="1" parent="1">
          <mxGeometry relative="1" as="geometry">
            <mxPoint x="310" y="616" as="targetPoint" />
            <mxPoint x="260" y="615.5" as="sourcePoint" />
          </mxGeometry>
        </mxCell>
        <mxCell id="NtykU3XNso2N6o69aGmZ-68" value="" style="edgeStyle=orthogonalEdgeStyle;html=1;verticalAlign=bottom;endArrow=open;endSize=8;strokeColor=#ff0000;rounded=0;" edge="1" parent="1">
          <mxGeometry relative="1" as="geometry">
            <mxPoint x="140" y="616" as="targetPoint" />
            <mxPoint x="97" y="616" as="sourcePoint" />
          </mxGeometry>
        </mxCell>
        <mxCell id="NtykU3XNso2N6o69aGmZ-69" value="Validate Account&amp;nbsp;" style="rounded=1;whiteSpace=wrap;html=1;arcSize=40;fontColor=#000000;fillColor=#ffffc0;strokeColor=#ff0000;" vertex="1" parent="1">
          <mxGeometry x="310" y="596" width="120" height="40" as="geometry" />
        </mxCell>
        <mxCell id="NtykU3XNso2N6o69aGmZ-70" value="" style="edgeStyle=orthogonalEdgeStyle;html=1;verticalAlign=bottom;endArrow=open;endSize=8;strokeColor=#ff0000;rounded=0;" edge="1" parent="1">
          <mxGeometry relative="1" as="geometry">
            <mxPoint x="480" y="617" as="targetPoint" />
            <mxPoint x="430" y="616.5" as="sourcePoint" />
          </mxGeometry>
        </mxCell>
        <mxCell id="NtykU3XNso2N6o69aGmZ-71" value="Send details&amp;nbsp;" style="text;html=1;align=center;verticalAlign=middle;resizable=0;points=[];autosize=1;strokeColor=none;fillColor=none;" vertex="1" parent="1">
          <mxGeometry x="240" y="571" width="90" height="30" as="geometry" />
        </mxCell>
        <mxCell id="NtykU3XNso2N6o69aGmZ-72" value="Validate details&amp;nbsp;" style="text;html=1;align=center;verticalAlign=middle;resizable=0;points=[];autosize=1;strokeColor=none;fillColor=none;" vertex="1" parent="1">
          <mxGeometry x="400" y="571" width="110" height="30" as="geometry" />
        </mxCell>
        <mxCell id="NtykU3XNso2N6o69aGmZ-73" value="Is valid&amp;nbsp;" style="rhombus;whiteSpace=wrap;html=1;fontColor=#000000;fillColor=#ffffc0;strokeColor=#ff0000;direction=south;" vertex="1" parent="1">
          <mxGeometry x="480" y="576" width="60" height="80" as="geometry" />
        </mxCell>
        <mxCell id="NtykU3XNso2N6o69aGmZ-74" value="Details accepted&amp;nbsp;" style="edgeStyle=orthogonalEdgeStyle;html=1;align=left;verticalAlign=bottom;endArrow=open;endSize=8;strokeColor=#ff0000;rounded=0;" edge="1" parent="1">
          <mxGeometry x="-1" y="22" relative="1" as="geometry">
            <mxPoint x="610" y="616" as="targetPoint" />
            <mxPoint x="539" y="616" as="sourcePoint" />
            <mxPoint x="-9" y="2" as="offset" />
          </mxGeometry>
        </mxCell>
        <mxCell id="NtykU3XNso2N6o69aGmZ-75" value="" style="edgeStyle=orthogonalEdgeStyle;html=1;align=left;verticalAlign=top;endArrow=open;endSize=8;strokeColor=#ff0000;rounded=0;" edge="1" parent="1">
          <mxGeometry x="-0.7333" y="-20" relative="1" as="geometry">
            <mxPoint x="510" y="706" as="targetPoint" />
            <mxPoint x="510" y="658" as="sourcePoint" />
            <mxPoint as="offset" />
          </mxGeometry>
        </mxCell>
        <mxCell id="NtykU3XNso2N6o69aGmZ-76" value="reject&amp;nbsp;" style="edgeLabel;html=1;align=center;verticalAlign=middle;resizable=0;points=[];" connectable="0" vertex="1" parent="NtykU3XNso2N6o69aGmZ-75">
          <mxGeometry x="-0.7333" y="-21" relative="1" as="geometry">
            <mxPoint as="offset" />
          </mxGeometry>
        </mxCell>
        <mxCell id="NtykU3XNso2N6o69aGmZ-77" value="Get balance in data base&amp;nbsp;" style="rounded=1;whiteSpace=wrap;html=1;arcSize=40;fontColor=#000000;fillColor=#ffffc0;strokeColor=#ff0000;" vertex="1" parent="1">
          <mxGeometry x="610" y="596" width="120" height="40" as="geometry" />
        </mxCell>
        <mxCell id="NtykU3XNso2N6o69aGmZ-79" value="" style="edgeStyle=orthogonalEdgeStyle;html=1;align=left;verticalAlign=top;endArrow=open;endSize=8;strokeColor=#ff0000;rounded=0;" edge="1" parent="1">
          <mxGeometry x="-0.7333" y="-20" relative="1" as="geometry">
            <mxPoint x="661" y="700" as="targetPoint" />
            <mxPoint x="661" y="640" as="sourcePoint" />
            <mxPoint as="offset" />
          </mxGeometry>
        </mxCell>
        <mxCell id="NtykU3XNso2N6o69aGmZ-80" value="Display balance&amp;nbsp;" style="rounded=1;whiteSpace=wrap;html=1;arcSize=40;fontColor=#000000;fillColor=#ffffc0;strokeColor=#ff0000;" vertex="1" parent="1">
          <mxGeometry x="600" y="706" width="120" height="40" as="geometry" />
        </mxCell>
        <mxCell id="NtykU3XNso2N6o69aGmZ-83" value="" style="edgeStyle=orthogonalEdgeStyle;html=1;align=left;verticalAlign=top;endArrow=open;endSize=8;strokeColor=#ff0000;rounded=0;" edge="1" parent="1">
          <mxGeometry x="-0.7333" y="-20" relative="1" as="geometry">
            <mxPoint x="662" y="806" as="targetPoint" />
            <mxPoint x="662" y="746" as="sourcePoint" />
            <mxPoint as="offset" />
          </mxGeometry>
        </mxCell>
        <mxCell id="NtykU3XNso2N6o69aGmZ-84" value="" style="ellipse;html=1;shape=endState;fillColor=#000000;strokeColor=#ff0000;" vertex="1" parent="1">
          <mxGeometry x="645" y="806" width="30" height="30" as="geometry" />
        </mxCell>
        <mxCell id="NtykU3XNso2N6o69aGmZ-86" value="" style="ellipse;html=1;shape=endState;fillColor=#000000;strokeColor=#ff0000;" vertex="1" parent="1">
          <mxGeometry x="495" y="820" width="30" height="30" as="geometry" />
        </mxCell>
        <mxCell id="NtykU3XNso2N6o69aGmZ-88" value="&lt;font style=&quot;font-size: 14px; font-weight: normal;&quot;&gt;&lt;u&gt;Create Account :&amp;nbsp;&lt;/u&gt;&lt;/font&gt;" style="text;align=center;fontStyle=1;verticalAlign=middle;spacingLeft=3;spacingRight=3;strokeColor=none;rotatable=0;points=[[0,0.5],[1,0.5]];portConstraint=eastwest;html=1;" vertex="1" parent="1">
          <mxGeometry x="35" y="30" width="100" height="26" as="geometry" />
        </mxCell>
        <mxCell id="NtykU3XNso2N6o69aGmZ-90" value="" style="ellipse;html=1;shape=startState;fillColor=#000000;strokeColor=#ff0000;" vertex="1" parent="1">
          <mxGeometry x="80" y="950" width="30" height="30" as="geometry" />
        </mxCell>
        <mxCell id="NtykU3XNso2N6o69aGmZ-91" value="Idle&amp;nbsp;" style="text;html=1;align=center;verticalAlign=middle;resizable=0;points=[];autosize=1;strokeColor=none;fillColor=none;" vertex="1" parent="1">
          <mxGeometry x="110" y="935" width="50" height="30" as="geometry" />
        </mxCell>
        <mxCell id="NtykU3XNso2N6o69aGmZ-92" value="Deposit&amp;nbsp;" style="rounded=1;whiteSpace=wrap;html=1;arcSize=40;fontColor=#000000;fillColor=#ffffc0;strokeColor=#ff0000;" vertex="1" parent="1">
          <mxGeometry x="150" y="940" width="120" height="40" as="geometry" />
        </mxCell>
        <mxCell id="NtykU3XNso2N6o69aGmZ-93" value="" style="edgeStyle=orthogonalEdgeStyle;html=1;verticalAlign=bottom;endArrow=open;endSize=8;strokeColor=#ff0000;rounded=0;" edge="1" parent="1">
          <mxGeometry relative="1" as="geometry">
            <mxPoint x="320" y="965" as="targetPoint" />
            <mxPoint x="270" y="964.5" as="sourcePoint" />
          </mxGeometry>
        </mxCell>
        <mxCell id="NtykU3XNso2N6o69aGmZ-94" value="" style="edgeStyle=orthogonalEdgeStyle;html=1;verticalAlign=bottom;endArrow=open;endSize=8;strokeColor=#ff0000;rounded=0;" edge="1" parent="1">
          <mxGeometry relative="1" as="geometry">
            <mxPoint x="150" y="965" as="targetPoint" />
            <mxPoint x="107" y="965" as="sourcePoint" />
          </mxGeometry>
        </mxCell>
        <mxCell id="NtykU3XNso2N6o69aGmZ-95" value="Validate Account&amp;nbsp;" style="rounded=1;whiteSpace=wrap;html=1;arcSize=40;fontColor=#000000;fillColor=#ffffc0;strokeColor=#ff0000;" vertex="1" parent="1">
          <mxGeometry x="320" y="945" width="120" height="40" as="geometry" />
        </mxCell>
        <mxCell id="NtykU3XNso2N6o69aGmZ-96" value="" style="edgeStyle=orthogonalEdgeStyle;html=1;verticalAlign=bottom;endArrow=open;endSize=8;strokeColor=#ff0000;rounded=0;" edge="1" parent="1">
          <mxGeometry relative="1" as="geometry">
            <mxPoint x="490" y="966" as="targetPoint" />
            <mxPoint x="440" y="965.5" as="sourcePoint" />
          </mxGeometry>
        </mxCell>
        <mxCell id="NtykU3XNso2N6o69aGmZ-97" value="Send details&amp;nbsp;" style="text;html=1;align=center;verticalAlign=middle;resizable=0;points=[];autosize=1;strokeColor=none;fillColor=none;" vertex="1" parent="1">
          <mxGeometry x="250" y="920" width="90" height="30" as="geometry" />
        </mxCell>
        <mxCell id="NtykU3XNso2N6o69aGmZ-98" value="Validate details&amp;nbsp;" style="text;html=1;align=center;verticalAlign=middle;resizable=0;points=[];autosize=1;strokeColor=none;fillColor=none;" vertex="1" parent="1">
          <mxGeometry x="410" y="920" width="110" height="30" as="geometry" />
        </mxCell>
        <mxCell id="NtykU3XNso2N6o69aGmZ-99" value="Is valid&amp;nbsp;" style="rhombus;whiteSpace=wrap;html=1;fontColor=#000000;fillColor=#ffffc0;strokeColor=#ff0000;direction=south;" vertex="1" parent="1">
          <mxGeometry x="490" y="925" width="60" height="80" as="geometry" />
        </mxCell>
        <mxCell id="NtykU3XNso2N6o69aGmZ-100" value="Details accepted&amp;nbsp;" style="edgeStyle=orthogonalEdgeStyle;html=1;align=left;verticalAlign=bottom;endArrow=open;endSize=8;strokeColor=#ff0000;rounded=0;" edge="1" parent="1">
          <mxGeometry x="-1" y="22" relative="1" as="geometry">
            <mxPoint x="620" y="965" as="targetPoint" />
            <mxPoint x="549" y="965" as="sourcePoint" />
            <mxPoint x="-9" y="2" as="offset" />
          </mxGeometry>
        </mxCell>
        <mxCell id="NtykU3XNso2N6o69aGmZ-101" value="" style="edgeStyle=orthogonalEdgeStyle;html=1;align=left;verticalAlign=top;endArrow=open;endSize=8;strokeColor=#ff0000;rounded=0;" edge="1" parent="1">
          <mxGeometry x="-0.7333" y="-20" relative="1" as="geometry">
            <mxPoint x="520" y="1055" as="targetPoint" />
            <mxPoint x="520" y="1007" as="sourcePoint" />
            <mxPoint as="offset" />
          </mxGeometry>
        </mxCell>
        <mxCell id="NtykU3XNso2N6o69aGmZ-102" value="reject&amp;nbsp;" style="edgeLabel;html=1;align=center;verticalAlign=middle;resizable=0;points=[];" connectable="0" vertex="1" parent="NtykU3XNso2N6o69aGmZ-101">
          <mxGeometry x="-0.7333" y="-21" relative="1" as="geometry">
            <mxPoint as="offset" />
          </mxGeometry>
        </mxCell>
        <mxCell id="NtykU3XNso2N6o69aGmZ-103" value="Update&amp;nbsp; in data base&amp;nbsp;" style="rounded=1;whiteSpace=wrap;html=1;arcSize=40;fontColor=#000000;fillColor=#ffffc0;strokeColor=#ff0000;" vertex="1" parent="1">
          <mxGeometry x="620" y="945" width="120" height="40" as="geometry" />
        </mxCell>
        <mxCell id="NtykU3XNso2N6o69aGmZ-104" value="" style="edgeStyle=orthogonalEdgeStyle;html=1;align=left;verticalAlign=top;endArrow=open;endSize=8;strokeColor=#ff0000;rounded=0;" edge="1" parent="1">
          <mxGeometry x="-0.7333" y="-20" relative="1" as="geometry">
            <mxPoint x="671" y="1049" as="targetPoint" />
            <mxPoint x="671" y="989" as="sourcePoint" />
            <mxPoint as="offset" />
          </mxGeometry>
        </mxCell>
        <mxCell id="NtykU3XNso2N6o69aGmZ-105" value="Convey Money deposited" style="rounded=1;whiteSpace=wrap;html=1;arcSize=40;fontColor=#000000;fillColor=#ffffc0;strokeColor=#ff0000;" vertex="1" parent="1">
          <mxGeometry x="610" y="1055" width="120" height="40" as="geometry" />
        </mxCell>
        <mxCell id="NtykU3XNso2N6o69aGmZ-106" value="" style="edgeStyle=orthogonalEdgeStyle;html=1;align=left;verticalAlign=top;endArrow=open;endSize=8;strokeColor=#ff0000;rounded=0;" edge="1" parent="1">
          <mxGeometry x="-0.7333" y="-20" relative="1" as="geometry">
            <mxPoint x="672" y="1155" as="targetPoint" />
            <mxPoint x="672" y="1095" as="sourcePoint" />
            <mxPoint as="offset" />
          </mxGeometry>
        </mxCell>
        <mxCell id="NtykU3XNso2N6o69aGmZ-107" value="" style="ellipse;html=1;shape=endState;fillColor=#000000;strokeColor=#ff0000;" vertex="1" parent="1">
          <mxGeometry x="655" y="1155" width="30" height="30" as="geometry" />
        </mxCell>
        <mxCell id="NtykU3XNso2N6o69aGmZ-109" value="Reject detail" style="rounded=1;whiteSpace=wrap;html=1;arcSize=40;fontColor=#000000;fillColor=#ffffc0;strokeColor=#ff0000;" vertex="1" parent="1">
          <mxGeometry x="450" y="710" width="120" height="40" as="geometry" />
        </mxCell>
        <mxCell id="NtykU3XNso2N6o69aGmZ-110" value="" style="edgeStyle=orthogonalEdgeStyle;html=1;align=left;verticalAlign=top;endArrow=open;endSize=8;strokeColor=#ff0000;rounded=0;" edge="1" parent="1">
          <mxGeometry x="-0.7333" y="-20" relative="1" as="geometry">
            <mxPoint x="510" y="814" as="targetPoint" />
            <mxPoint x="510" y="754" as="sourcePoint" />
            <mxPoint as="offset" />
          </mxGeometry>
        </mxCell>
        <mxCell id="NtykU3XNso2N6o69aGmZ-112" value="" style="ellipse;html=1;shape=endState;fillColor=#000000;strokeColor=#ff0000;" vertex="1" parent="1">
          <mxGeometry x="505" y="1160" width="30" height="30" as="geometry" />
        </mxCell>
        <mxCell id="NtykU3XNso2N6o69aGmZ-113" value="Reject detail" style="rounded=1;whiteSpace=wrap;html=1;arcSize=40;fontColor=#000000;fillColor=#ffffc0;strokeColor=#ff0000;" vertex="1" parent="1">
          <mxGeometry x="470" y="1055" width="120" height="40" as="geometry" />
        </mxCell>
        <mxCell id="NtykU3XNso2N6o69aGmZ-114" value="" style="edgeStyle=orthogonalEdgeStyle;html=1;align=left;verticalAlign=top;endArrow=open;endSize=8;strokeColor=#ff0000;rounded=0;" edge="1" parent="1">
          <mxGeometry x="-0.7333" y="-20" relative="1" as="geometry">
            <mxPoint x="520" y="1161" as="targetPoint" />
            <mxPoint x="520" y="1101" as="sourcePoint" />
            <mxPoint as="offset" />
          </mxGeometry>
        </mxCell>
        <mxCell id="U731q1QtO7u7C1cZKYfB-4" value="" style="edgeStyle=orthogonalEdgeStyle;html=1;verticalAlign=bottom;endArrow=open;endSize=8;strokeColor=#ff0000;rounded=0;exitX=1;exitY=0.5;exitDx=0;exitDy=0;" edge="1" parent="1" source="NtykU3XNso2N6o69aGmZ-17">
          <mxGeometry relative="1" as="geometry">
            <mxPoint x="490" y="230" as="targetPoint" />
          </mxGeometry>
        </mxCell>
        <mxCell id="U731q1QtO7u7C1cZKYfB-5" value="reject" style="text;html=1;align=center;verticalAlign=middle;resizable=0;points=[];autosize=1;strokeColor=none;fillColor=none;" vertex="1" parent="1">
          <mxGeometry x="440" y="190" width="50" height="30" as="geometry" />
        </mxCell>
        <mxCell id="AME0XtuPh-Gl4rj9aPBf-1" value="" style="ellipse;html=1;shape=startState;fillColor=#000000;strokeColor=#ff0000;" vertex="1" parent="1">
          <mxGeometry x="110" y="1290" width="30" height="30" as="geometry" />
        </mxCell>
        <mxCell id="AME0XtuPh-Gl4rj9aPBf-2" value="Idle&amp;nbsp;" style="text;html=1;align=center;verticalAlign=middle;resizable=0;points=[];autosize=1;strokeColor=none;fillColor=none;" vertex="1" parent="1">
          <mxGeometry x="140" y="1275" width="50" height="30" as="geometry" />
        </mxCell>
        <mxCell id="AME0XtuPh-Gl4rj9aPBf-3" value="Credit amount&amp;nbsp;&amp;nbsp;" style="rounded=1;whiteSpace=wrap;html=1;arcSize=40;fontColor=#000000;fillColor=#ffffc0;strokeColor=#ff0000;" vertex="1" parent="1">
          <mxGeometry x="180" y="1280" width="120" height="40" as="geometry" />
        </mxCell>
        <mxCell id="AME0XtuPh-Gl4rj9aPBf-4" value="" style="edgeStyle=orthogonalEdgeStyle;html=1;verticalAlign=bottom;endArrow=open;endSize=8;strokeColor=#ff0000;rounded=0;" edge="1" parent="1">
          <mxGeometry relative="1" as="geometry">
            <mxPoint x="350" y="1305" as="targetPoint" />
            <mxPoint x="300" y="1304.5" as="sourcePoint" />
          </mxGeometry>
        </mxCell>
        <mxCell id="AME0XtuPh-Gl4rj9aPBf-5" value="" style="edgeStyle=orthogonalEdgeStyle;html=1;verticalAlign=bottom;endArrow=open;endSize=8;strokeColor=#ff0000;rounded=0;" edge="1" parent="1">
          <mxGeometry relative="1" as="geometry">
            <mxPoint x="180" y="1305" as="targetPoint" />
            <mxPoint x="137" y="1305" as="sourcePoint" />
          </mxGeometry>
        </mxCell>
        <mxCell id="AME0XtuPh-Gl4rj9aPBf-6" value="Validate Account&amp;nbsp;" style="rounded=1;whiteSpace=wrap;html=1;arcSize=40;fontColor=#000000;fillColor=#ffffc0;strokeColor=#ff0000;" vertex="1" parent="1">
          <mxGeometry x="350" y="1285" width="120" height="40" as="geometry" />
        </mxCell>
        <mxCell id="AME0XtuPh-Gl4rj9aPBf-7" value="" style="edgeStyle=orthogonalEdgeStyle;html=1;verticalAlign=bottom;endArrow=open;endSize=8;strokeColor=#ff0000;rounded=0;" edge="1" parent="1">
          <mxGeometry relative="1" as="geometry">
            <mxPoint x="520" y="1306" as="targetPoint" />
            <mxPoint x="470" y="1305.5" as="sourcePoint" />
          </mxGeometry>
        </mxCell>
        <mxCell id="AME0XtuPh-Gl4rj9aPBf-8" value="Send details&amp;nbsp;" style="text;html=1;align=center;verticalAlign=middle;resizable=0;points=[];autosize=1;strokeColor=none;fillColor=none;" vertex="1" parent="1">
          <mxGeometry x="280" y="1260" width="90" height="30" as="geometry" />
        </mxCell>
        <mxCell id="AME0XtuPh-Gl4rj9aPBf-9" value="Validate details&amp;nbsp;" style="text;html=1;align=center;verticalAlign=middle;resizable=0;points=[];autosize=1;strokeColor=none;fillColor=none;" vertex="1" parent="1">
          <mxGeometry x="440" y="1260" width="110" height="30" as="geometry" />
        </mxCell>
        <mxCell id="AME0XtuPh-Gl4rj9aPBf-10" value="Is valid&amp;nbsp;" style="rhombus;whiteSpace=wrap;html=1;fontColor=#000000;fillColor=#ffffc0;strokeColor=#ff0000;direction=south;" vertex="1" parent="1">
          <mxGeometry x="520" y="1265" width="60" height="80" as="geometry" />
        </mxCell>
        <mxCell id="AME0XtuPh-Gl4rj9aPBf-11" value="Details accepted&amp;nbsp;" style="edgeStyle=orthogonalEdgeStyle;html=1;align=left;verticalAlign=bottom;endArrow=open;endSize=8;strokeColor=#ff0000;rounded=0;" edge="1" parent="1">
          <mxGeometry x="-1" y="22" relative="1" as="geometry">
            <mxPoint x="650" y="1305" as="targetPoint" />
            <mxPoint x="579" y="1305" as="sourcePoint" />
            <mxPoint x="-9" y="2" as="offset" />
          </mxGeometry>
        </mxCell>
        <mxCell id="AME0XtuPh-Gl4rj9aPBf-12" value="" style="edgeStyle=orthogonalEdgeStyle;html=1;align=left;verticalAlign=top;endArrow=open;endSize=8;strokeColor=#ff0000;rounded=0;" edge="1" parent="1">
          <mxGeometry x="-0.7333" y="-20" relative="1" as="geometry">
            <mxPoint x="550" y="1395" as="targetPoint" />
            <mxPoint x="550" y="1347" as="sourcePoint" />
            <mxPoint as="offset" />
          </mxGeometry>
        </mxCell>
        <mxCell id="AME0XtuPh-Gl4rj9aPBf-13" value="reject&amp;nbsp;" style="edgeLabel;html=1;align=center;verticalAlign=middle;resizable=0;points=[];" connectable="0" vertex="1" parent="AME0XtuPh-Gl4rj9aPBf-12">
          <mxGeometry x="-0.7333" y="-21" relative="1" as="geometry">
            <mxPoint as="offset" />
          </mxGeometry>
        </mxCell>
        <mxCell id="AME0XtuPh-Gl4rj9aPBf-14" value="Update&amp;nbsp; in data base&amp;nbsp;" style="rounded=1;whiteSpace=wrap;html=1;arcSize=40;fontColor=#000000;fillColor=#ffffc0;strokeColor=#ff0000;" vertex="1" parent="1">
          <mxGeometry x="650" y="1285" width="120" height="40" as="geometry" />
        </mxCell>
        <mxCell id="AME0XtuPh-Gl4rj9aPBf-15" value="" style="edgeStyle=orthogonalEdgeStyle;html=1;align=left;verticalAlign=top;endArrow=open;endSize=8;strokeColor=#ff0000;rounded=0;" edge="1" parent="1">
          <mxGeometry x="-0.7333" y="-20" relative="1" as="geometry">
            <mxPoint x="701" y="1389" as="targetPoint" />
            <mxPoint x="701" y="1329" as="sourcePoint" />
            <mxPoint as="offset" />
          </mxGeometry>
        </mxCell>
        <mxCell id="AME0XtuPh-Gl4rj9aPBf-16" value="Convey Money deposited" style="rounded=1;whiteSpace=wrap;html=1;arcSize=40;fontColor=#000000;fillColor=#ffffc0;strokeColor=#ff0000;" vertex="1" parent="1">
          <mxGeometry x="640" y="1395" width="120" height="40" as="geometry" />
        </mxCell>
        <mxCell id="AME0XtuPh-Gl4rj9aPBf-17" value="" style="edgeStyle=orthogonalEdgeStyle;html=1;align=left;verticalAlign=top;endArrow=open;endSize=8;strokeColor=#ff0000;rounded=0;" edge="1" parent="1">
          <mxGeometry x="-0.7333" y="-20" relative="1" as="geometry">
            <mxPoint x="702" y="1495" as="targetPoint" />
            <mxPoint x="702" y="1435" as="sourcePoint" />
            <mxPoint as="offset" />
          </mxGeometry>
        </mxCell>
        <mxCell id="AME0XtuPh-Gl4rj9aPBf-18" value="" style="ellipse;html=1;shape=endState;fillColor=#000000;strokeColor=#ff0000;" vertex="1" parent="1">
          <mxGeometry x="685" y="1495" width="30" height="30" as="geometry" />
        </mxCell>
        <mxCell id="AME0XtuPh-Gl4rj9aPBf-19" value="" style="ellipse;html=1;shape=endState;fillColor=#000000;strokeColor=#ff0000;" vertex="1" parent="1">
          <mxGeometry x="535" y="1500" width="30" height="30" as="geometry" />
        </mxCell>
        <mxCell id="AME0XtuPh-Gl4rj9aPBf-20" value="Reject detail" style="rounded=1;whiteSpace=wrap;html=1;arcSize=40;fontColor=#000000;fillColor=#ffffc0;strokeColor=#ff0000;" vertex="1" parent="1">
          <mxGeometry x="500" y="1395" width="120" height="40" as="geometry" />
        </mxCell>
        <mxCell id="AME0XtuPh-Gl4rj9aPBf-21" value="" style="edgeStyle=orthogonalEdgeStyle;html=1;align=left;verticalAlign=top;endArrow=open;endSize=8;strokeColor=#ff0000;rounded=0;" edge="1" parent="1">
          <mxGeometry x="-0.7333" y="-20" relative="1" as="geometry">
            <mxPoint x="550" y="1501" as="targetPoint" />
            <mxPoint x="550" y="1441" as="sourcePoint" />
            <mxPoint as="offset" />
          </mxGeometry>
        </mxCell>
        <mxCell id="AME0XtuPh-Gl4rj9aPBf-22" value="" style="ellipse;html=1;shape=startState;fillColor=#000000;strokeColor=#ff0000;" vertex="1" parent="1">
          <mxGeometry x="130" y="1630" width="30" height="30" as="geometry" />
        </mxCell>
        <mxCell id="AME0XtuPh-Gl4rj9aPBf-23" value="Idle&amp;nbsp;" style="text;html=1;align=center;verticalAlign=middle;resizable=0;points=[];autosize=1;strokeColor=none;fillColor=none;" vertex="1" parent="1">
          <mxGeometry x="160" y="1615" width="50" height="30" as="geometry" />
        </mxCell>
        <mxCell id="AME0XtuPh-Gl4rj9aPBf-24" value="Apply loan&amp;nbsp;" style="rounded=1;whiteSpace=wrap;html=1;arcSize=40;fontColor=#000000;fillColor=#ffffc0;strokeColor=#ff0000;" vertex="1" parent="1">
          <mxGeometry x="200" y="1620" width="120" height="40" as="geometry" />
        </mxCell>
        <mxCell id="AME0XtuPh-Gl4rj9aPBf-25" value="" style="edgeStyle=orthogonalEdgeStyle;html=1;verticalAlign=bottom;endArrow=open;endSize=8;strokeColor=#ff0000;rounded=0;" edge="1" parent="1">
          <mxGeometry relative="1" as="geometry">
            <mxPoint x="370" y="1645" as="targetPoint" />
            <mxPoint x="320" y="1644.5" as="sourcePoint" />
          </mxGeometry>
        </mxCell>
        <mxCell id="AME0XtuPh-Gl4rj9aPBf-26" value="" style="edgeStyle=orthogonalEdgeStyle;html=1;verticalAlign=bottom;endArrow=open;endSize=8;strokeColor=#ff0000;rounded=0;" edge="1" parent="1">
          <mxGeometry relative="1" as="geometry">
            <mxPoint x="200" y="1645" as="targetPoint" />
            <mxPoint x="157" y="1645" as="sourcePoint" />
          </mxGeometry>
        </mxCell>
        <mxCell id="AME0XtuPh-Gl4rj9aPBf-27" value="Validate Account&amp;nbsp;" style="rounded=1;whiteSpace=wrap;html=1;arcSize=40;fontColor=#000000;fillColor=#ffffc0;strokeColor=#ff0000;" vertex="1" parent="1">
          <mxGeometry x="370" y="1625" width="120" height="40" as="geometry" />
        </mxCell>
        <mxCell id="AME0XtuPh-Gl4rj9aPBf-28" value="" style="edgeStyle=orthogonalEdgeStyle;html=1;verticalAlign=bottom;endArrow=open;endSize=8;strokeColor=#ff0000;rounded=0;" edge="1" parent="1">
          <mxGeometry relative="1" as="geometry">
            <mxPoint x="540" y="1646" as="targetPoint" />
            <mxPoint x="490" y="1645.5" as="sourcePoint" />
          </mxGeometry>
        </mxCell>
        <mxCell id="AME0XtuPh-Gl4rj9aPBf-29" value="Send details&amp;nbsp;" style="text;html=1;align=center;verticalAlign=middle;resizable=0;points=[];autosize=1;strokeColor=none;fillColor=none;" vertex="1" parent="1">
          <mxGeometry x="300" y="1600" width="90" height="30" as="geometry" />
        </mxCell>
        <mxCell id="AME0XtuPh-Gl4rj9aPBf-30" value="Validate details&amp;nbsp;" style="text;html=1;align=center;verticalAlign=middle;resizable=0;points=[];autosize=1;strokeColor=none;fillColor=none;" vertex="1" parent="1">
          <mxGeometry x="460" y="1600" width="110" height="30" as="geometry" />
        </mxCell>
        <mxCell id="AME0XtuPh-Gl4rj9aPBf-31" value="Is valid&amp;nbsp;" style="rhombus;whiteSpace=wrap;html=1;fontColor=#000000;fillColor=#ffffc0;strokeColor=#ff0000;direction=south;" vertex="1" parent="1">
          <mxGeometry x="540" y="1605" width="60" height="80" as="geometry" />
        </mxCell>
        <mxCell id="AME0XtuPh-Gl4rj9aPBf-32" value="Details accepted&amp;nbsp;" style="edgeStyle=orthogonalEdgeStyle;html=1;align=left;verticalAlign=bottom;endArrow=open;endSize=8;strokeColor=#ff0000;rounded=0;" edge="1" parent="1">
          <mxGeometry x="-1" y="22" relative="1" as="geometry">
            <mxPoint x="670" y="1645" as="targetPoint" />
            <mxPoint x="599" y="1645" as="sourcePoint" />
            <mxPoint x="-9" y="2" as="offset" />
          </mxGeometry>
        </mxCell>
        <mxCell id="AME0XtuPh-Gl4rj9aPBf-33" value="" style="edgeStyle=orthogonalEdgeStyle;html=1;align=left;verticalAlign=top;endArrow=open;endSize=8;strokeColor=#ff0000;rounded=0;" edge="1" parent="1">
          <mxGeometry x="-0.7333" y="-20" relative="1" as="geometry">
            <mxPoint x="570" y="1735" as="targetPoint" />
            <mxPoint x="570" y="1687" as="sourcePoint" />
            <mxPoint as="offset" />
          </mxGeometry>
        </mxCell>
        <mxCell id="AME0XtuPh-Gl4rj9aPBf-34" value="reject&amp;nbsp;" style="edgeLabel;html=1;align=center;verticalAlign=middle;resizable=0;points=[];" connectable="0" vertex="1" parent="AME0XtuPh-Gl4rj9aPBf-33">
          <mxGeometry x="-0.7333" y="-21" relative="1" as="geometry">
            <mxPoint as="offset" />
          </mxGeometry>
        </mxCell>
        <mxCell id="AME0XtuPh-Gl4rj9aPBf-35" value="Update&amp;nbsp; in data base&amp;nbsp;" style="rounded=1;whiteSpace=wrap;html=1;arcSize=40;fontColor=#000000;fillColor=#ffffc0;strokeColor=#ff0000;" vertex="1" parent="1">
          <mxGeometry x="670" y="1625" width="120" height="40" as="geometry" />
        </mxCell>
        <mxCell id="AME0XtuPh-Gl4rj9aPBf-36" value="" style="edgeStyle=orthogonalEdgeStyle;html=1;align=left;verticalAlign=top;endArrow=open;endSize=8;strokeColor=#ff0000;rounded=0;" edge="1" parent="1">
          <mxGeometry x="-0.7333" y="-20" relative="1" as="geometry">
            <mxPoint x="721" y="1729" as="targetPoint" />
            <mxPoint x="721" y="1669" as="sourcePoint" />
            <mxPoint as="offset" />
          </mxGeometry>
        </mxCell>
        <mxCell id="AME0XtuPh-Gl4rj9aPBf-37" value="loan applied&amp;nbsp;" style="rounded=1;whiteSpace=wrap;html=1;arcSize=40;fontColor=#000000;fillColor=#ffffc0;strokeColor=#ff0000;" vertex="1" parent="1">
          <mxGeometry x="660" y="1735" width="120" height="40" as="geometry" />
        </mxCell>
        <mxCell id="AME0XtuPh-Gl4rj9aPBf-38" value="" style="edgeStyle=orthogonalEdgeStyle;html=1;align=left;verticalAlign=top;endArrow=open;endSize=8;strokeColor=#ff0000;rounded=0;" edge="1" parent="1">
          <mxGeometry x="-0.7333" y="-20" relative="1" as="geometry">
            <mxPoint x="722" y="1835" as="targetPoint" />
            <mxPoint x="722" y="1775" as="sourcePoint" />
            <mxPoint as="offset" />
          </mxGeometry>
        </mxCell>
        <mxCell id="AME0XtuPh-Gl4rj9aPBf-39" value="" style="ellipse;html=1;shape=endState;fillColor=#000000;strokeColor=#ff0000;" vertex="1" parent="1">
          <mxGeometry x="705" y="1835" width="30" height="30" as="geometry" />
        </mxCell>
        <mxCell id="AME0XtuPh-Gl4rj9aPBf-40" value="" style="ellipse;html=1;shape=endState;fillColor=#000000;strokeColor=#ff0000;" vertex="1" parent="1">
          <mxGeometry x="555" y="1840" width="30" height="30" as="geometry" />
        </mxCell>
        <mxCell id="AME0XtuPh-Gl4rj9aPBf-41" value="Reject detail" style="rounded=1;whiteSpace=wrap;html=1;arcSize=40;fontColor=#000000;fillColor=#ffffc0;strokeColor=#ff0000;" vertex="1" parent="1">
          <mxGeometry x="520" y="1735" width="120" height="40" as="geometry" />
        </mxCell>
        <mxCell id="AME0XtuPh-Gl4rj9aPBf-42" value="" style="edgeStyle=orthogonalEdgeStyle;html=1;align=left;verticalAlign=top;endArrow=open;endSize=8;strokeColor=#ff0000;rounded=0;" edge="1" parent="1">
          <mxGeometry x="-0.7333" y="-20" relative="1" as="geometry">
            <mxPoint x="570" y="1841" as="targetPoint" />
            <mxPoint x="570" y="1781" as="sourcePoint" />
            <mxPoint as="offset" />
          </mxGeometry>
        </mxCell>
      </root>
    </mxGraphModel>
  </diagram>
</mxfile>
